<svg width="30" height="30" viewBox="0 0 30 30" fill="none" xmlns="http://www.w3.org/2000/svg">
<path d="M23.4311 23.4814C24.0108 22.9056 24.9402 22.9056 25.52 23.4814L29.352 26.5746H29.4186C30.1938 27.3582 30.1938 28.6287 29.4186 29.4123C28.6433 30.1959 27.3863 30.1959 26.6111 29.4123L23.4311 25.7677L23.3104 25.6315C23.0856 25.347 22.9614 24.9923 22.9614 24.6246C22.9614 24.1956 23.1304 23.7842 23.4311 23.4814ZM12.8665 0C16.2789 0 19.5515 1.37015 21.9644 3.80904C24.3773 6.24793 25.7329 9.55578 25.7329 13.0049C25.7329 20.1873 19.9724 26.0098 12.8665 26.0098C5.76051 26.0098 0 20.1873 0 13.0049C0 5.82249 5.76051 0 12.8665 0Z" fill="#200E32"/>
</svg>
